<?xml version="1.0" encoding="UTF-8"?>
<!DOCTYPE svg PUBLIC "-//W3C//DTD SVG 1.1//EN" "http://www.w3.org/Graphics/SVG/1.1/DTD/svg11.dtd">
<!-- Creator: CorelDRAW -->
<svg xmlns="http://www.w3.org/2000/svg" xml:space="preserve" width="285.75mm" height="285.75mm" version="1.1" style="shape-rendering:geometricPrecision; text-rendering:geometricPrecision; image-rendering:optimizeQuality; fill-rule:evenodd; clip-rule:evenodd"
viewBox="0 0 28575 28575"
 xmlns:xlink="http://www.w3.org/1999/xlink"
 xmlns:xodm="http://www.corel.com/coreldraw/odm/2003">
 <defs>
  <style type="text/css">
   <![CDATA[
    .fil3 {fill:#31BA93}
    .fil2 {fill:#1A1A1A;fill-rule:nonzero}
    .fil1 {fill:#333333;fill-rule:nonzero}
    .fil4 {fill:#4D4D4D;fill-rule:nonzero}
    .fil0 {fill:url(#id0)}
   ]]>
  </style>
  <radialGradient id="id0" gradientUnits="userSpaceOnUse" gradientTransform="matrix(1 -0 -0 1 0 0)" cx="5694.56" cy="16331.22" r="3971.32" fx="5694.56" fy="16331.22">
   <stop offset="0" style="stop-opacity:1; stop-color:white"/>
   <stop offset="1" style="stop-opacity:1; stop-color:#F2F2F2"/>
  </radialGradient>
 </defs>
 <g id="Layer_x0020_1">
  <metadata id="CorelCorpID_0Corel-Layer"/>
  <circle class="fil0" cx="5694.56" cy="16331.22" r="3971.32"/>
  <rect class="fil0" x="-18555.75" y="194.68" width="12073.43" height="12073.43"/>
  <g id="_1957850550304">
   <path class="fil1" d="M-11176.1 6891.81c98.42,0 185.58,-27.26 259.19,-81.76 74.46,-55.27 135.43,-131.73 183.03,-230.15 47.59,-98.42 78.92,-213.5 94.16,-346.75 15.23,-133.25 10.23,-248.32 -14.95,-345.99 -25.18,-97.66 -68.75,-173.36 -130.66,-227.88 -61.23,-53.75 -142.24,-80.25 -240.66,-80.25 -97.66,0 -185.48,26.5 -262.7,79.5 -76.47,52.99 -139.64,128.7 -188.66,226.36 -49.03,97.67 -81.2,213.5 -96.61,348.26 -15.24,133.25 -8.71,248.33 18.64,346.75 26.6,98.42 72.38,174.88 136.47,230.15 64.17,54.5 145.09,81.76 242.75,81.76zm-1393.4 1492.96l386.01 -3375.82 763.14 0 -45.62 398.98 21.96 0c44.41,-77.22 101,-148.38 169.09,-214.25 68.1,-65.86 149.88,-118.86 245.4,-159.75 95.44,-40.12 206.03,-60.56 331.71,-60.56 179.42,0 338.35,46.94 477.51,140.81 139.17,93.89 244.29,233.94 313.76,420.95 69.46,186.99 88.14,420.93 56.2,700.29 -31.08,271.79 -101.31,501.95 -210.6,689.71 -110.05,187.75 -245.19,330.08 -406.17,426.98 -160.98,96.92 -336.87,145.37 -526.13,145.37 -119.62,0 -222.52,-20.44 -308.87,-59.81 -86.25,-40.13 -156.76,-92.37 -210.72,-156.72 -53.96,-64.35 -93.52,-135.52 -118.59,-214.25l-15.14 0 -150.71 1318.07 -772.23 0z"/>
   <g>
    <path class="fil2" d="M-14229.1 7253.85c-18.36,-2.33 -36.51,-4.93 -54.41,-7.83 17.91,2.89 36.05,5.5 54.41,7.83zm-105.43 -16.93c-9.35,-1.83 -18.61,-3.74 -27.82,-5.72 9.21,1.99 18.48,3.89 27.82,5.72zm-83.64 -18.93c-8.73,-2.25 -17.38,-4.57 -25.99,-6.98 8.6,2.41 17.26,4.73 25.99,6.98zm-27.99 -7.54c-8.67,-2.44 -17.27,-4.94 -25.81,-7.52 8.55,2.58 17.14,5.08 25.81,7.52zm-43.39 -12.98c-5.29,-1.69 -10.56,-3.4 -15.81,-5.14 5.25,1.74 10.52,3.45 15.81,5.14zm-26.44 -8.73c-11.36,-3.88 -22.61,-7.9 -33.74,-12.07 11.13,4.16 22.38,8.19 33.74,12.07zm-50.54 -18.5c-35.42,-13.85 -69.67,-29.15 -102.77,-45.93 -188.62,-95.2 -329.21,-230.06 -422.64,-403.14 -92.7,-173.09 -127.43,-377.18 -103.62,-610.84l207.09 -2032.29 743.54 0 -200.84 1970.98c-11.17,109.62 4.07,207.71 44.36,293.53 40.23,86.54 101.9,153.61 184.09,203.37 82.27,49.04 181.46,73.56 296.85,73.56 116.83,0 221.74,-24.52 314,-73.56 92.33,-49.76 166.96,-116.83 224.67,-201.93 42.16,-62.95 72.05,-133.39 89.34,-210.76 -111.9,583.91 -625.3,1025.16 -1241.84,1025.16 -21.91,0 -43.68,-0.56 -65.32,-1.67 10.91,4.65 21.94,9.16 33.09,13.52z"/>
    <path class="fil3" d="M-12655.23 4088.62l245.85 401.96 245.85 401.95 -253.98 0 -124.1 1217.8c-23.81,233.66 -100.14,437.75 -228.12,610.84 -127.98,173.08 -296.78,307.94 -504.8,403.14 -208.83,95.92 -445.97,144.24 -712.09,144.24 -234.22,0 -438.38,-37.45 -613,-111.83 21.64,1.11 43.41,1.67 65.32,1.67 616.54,0 1129.94,-441.25 1241.84,-1025.16 6.09,-27.22 10.6,-55.3 13.55,-84.21l2.63 -25.79 0.02 -0.21 115.2 -1130.49 -308.34 0 407.08 -401.95 407.09 -401.96z"/>
   </g>
  </g>
  <g id="_1957850550976">
   <path class="fil1" d="M23941.05 8809.64l240.92 -719.82 183.81 27.62c103.35,22.84 194.37,26.65 274.01,11.41 78.66,-15.23 141.94,-47.6 188.89,-97.11 47.98,-50.46 76.59,-116.16 84.94,-198.04l24.8 -131.4 -843.74 -3082.08 1020.7 0 308.42 1486.29c41.04,204.71 70.64,409.42 89.77,614.13 19.13,204.71 41.86,420.85 69.04,649.37l-214.24 0c70.9,-228.52 142.52,-445.62 214.04,-652.23 71.53,-206.61 149.42,-410.36 235.58,-611.27l638.95 -1486.29 1007.36 0 -1647.04 3427.7c-82.01,169.49 -178.94,317.07 -291.73,442.75 -111.72,124.74 -247.3,221.85 -404.63,289.45 -157.43,68.56 -344.59,101.88 -562.63,101.88 -117.11,0 -229.74,-6.66 -337.97,-19.05 -109.09,-13.33 -201.5,-31.42 -279.25,-53.31z"/>
   <path class="fil1" d="M22515.11 3864.21l970.24 0 -292.72 2872.62c-8.73,85.69 4.86,148.53 39.91,187.56 35.06,39.05 97.88,58.09 189.28,58.09 37.14,0 86.94,-2.86 150.46,-9.52 62.55,-6.66 107.89,-12.38 137.03,-18.09l24.07 716.97c-98.59,23.79 -200.31,40.93 -303.06,49.51 -103.81,9.51 -202.35,14.27 -297.57,14.27 -336.11,0 -581.71,-75.21 -735.87,-225.66 -153.2,-150.43 -215.13,-374.18 -185.05,-669.35l303.28 -2976.4z"/>
   <polygon class="fil1" points="23980.55,4620.22 23906.72,5344.8 21931.98,5344.8 22005.81,4620.22 "/>
   <path class="fil1" d="M21411.22 4270.78c-142.83,0 -259.19,-44.75 -348.9,-136.16 -88.76,-91.4 -126.92,-202.81 -113.43,-335.15 13.58,-133.29 74.64,-246.6 181.93,-337.06 108.34,-91.4 233.92,-137.1 376.74,-137.1 141.88,0 257.19,45.7 345.93,137.1 89.82,90.46 127.78,203.77 114.2,337.06 -13.49,132.34 -74.35,243.75 -182.7,335.15 -107.37,91.41 -231.9,136.16 -373.77,136.16z"/>
   <polygon class="fil1" points="20578.14,7699.44 20891.91,4620.22 21863.1,4620.22 21549.33,7699.44 "/>
   <path class="fil1" d="M18881.05 7760.38c-267.56,0 -500.74,-38.09 -699.51,-115.21 -198.75,-77.12 -354.12,-187.57 -466.97,-332.3 -112.93,-143.77 -174.39,-316.11 -185.34,-517.02l923.31 -109.49c20.22,128.54 72.12,226.62 156.54,295.17 84.52,67.6 206.7,101.88 366.66,101.88 133.31,0 241.41,-23.81 323.39,-71.41 81.97,-47.61 127.43,-110.45 135.38,-188.53 6.99,-68.55 -18.71,-124.72 -75.18,-168.53 -56.49,-43.79 -148.21,-78.07 -274.32,-101.88l-530.23 -103.77c-299.82,-57.14 -517.76,-160.92 -654.87,-310.41 -137.11,-149.48 -193.49,-343.72 -169.24,-581.75 20.87,-204.71 93.93,-379.9 219.23,-525.59 125.4,-146.63 293.94,-258.98 505.76,-338.01 211.81,-79.03 457.63,-118.06 736.6,-118.06 261.84,0 486.67,36.18 674.5,108.55 187.8,72.35 333.38,176.13 435.96,309.44 102.47,134.24 159.49,294.2 170.08,479.88l-875.3 105.68c-14.18,-103.78 -60.11,-185.67 -139.59,-246.61 -79.59,-59.98 -184.08,-90.44 -314.52,-90.44 -119.02,0 -219.51,23.8 -303.39,71.41 -82.83,46.65 -128.26,109.49 -136.22,187.57 -6.5,63.79 13.68,118.06 60.33,164.71 46.68,46.67 131.63,81.89 255.73,106.65l582.79 111.4c302.67,57.12 522.24,154.24 658.71,291.35 137.52,136.16 194.3,317.06 171.3,542.72 -21.34,209.47 -101.94,393.23 -241.64,549.39 -139.69,156.15 -322.45,277.07 -547.42,363.72 -225.91,86.64 -479.75,129.49 -762.53,129.49z"/>
   <path class="fil1" d="M15442.54 7699.44l313.77 -3079.22 940.71 0 -56.85 557.95 27.62 0c75.9,-202.8 182.53,-352.28 318.96,-448.46 136.33,-95.2 292.68,-143.77 468.83,-143.77 46.65,0 93.97,2.86 140.14,7.62 47.12,4.75 91.19,11.43 131.16,20.94l-84.99 834.08c-43.39,-13.33 -102.4,-22.85 -176.95,-29.52 -75.49,-6.66 -142.81,-9.52 -204.7,-9.52 -119.02,0 -227.31,25.71 -325.97,78.07 -97.59,51.43 -178.38,124.74 -239.4,219 -61.87,93.31 -98.93,204.71 -112.04,333.25l-169.1 1659.58 -971.19 0z"/>
   <path class="fil1" d="M13713.07 7760.38c-319.92,0 -590.38,-64.75 -811.32,-195.19 -221.05,-129.48 -382.17,-314.21 -483.59,-552.24 -101.43,-238.04 -135.55,-519.87 -102.47,-844.55 32.22,-316.11 123.39,-594.14 273.43,-833.13 150.03,-238.99 346.13,-425.6 590.15,-558.91 243.14,-134.24 518.43,-200.89 825.02,-200.89 218.99,0 417.35,34.27 592.99,104.73 175.73,69.51 324.35,171.39 445.79,306.59 121.51,134.25 208.52,298.97 262.04,493.21 53.42,195.19 67.95,417.04 42.34,668.4l-25.32 248.52 -2694.57 0 58.02 -569.38 2233.72 0 -464.7 131.39c14.44,-141.87 3.92,-262.79 -29.59,-363.72 -34.37,-101.88 -92.2,-179.01 -172.36,-233.28 -79.22,-54.26 -183.13,-80.93 -308.81,-80.93 -124.74,0 -234.19,27.61 -326.37,81.89 -93.23,55.23 -167.73,132.34 -223.43,230.42 -55.8,99.02 -90.58,216.14 -104.36,351.34l-41.82 410.37c-15.52,152.34 -2.91,280.87 37.73,386.57 40.75,104.73 105.07,183.76 194.83,237.08 88.93,52.37 197.62,79.03 323.3,79.03 89.51,0 171.69,-12.38 246.58,-37.13 74.98,-25.71 140.56,-61.9 196.83,-109.49 56.17,-46.67 100.16,-104.75 133.91,-174.25l853.2 111.4c-67.2,182.81 -171.94,341.81 -315.41,478.93 -143.36,136.15 -317.04,242.79 -521.89,318.96 -204.86,76.17 -432.51,114.26 -683.87,114.26z"/>
   <path class="fil1" d="M10009.85 7699.44l-804.99 -3079.22 1020.7 0 305.57 1486.29c41.43,200.91 75.89,404.66 102.35,612.23 27.39,207.57 53.84,424.65 79.3,651.27l-190.42 0c71.65,-226.62 141.37,-443.7 208.98,-649.37 67.71,-206.61 140.94,-411.32 221.6,-614.13l600.85 -1486.29 1009.27 0 -1435.39 3079.22 -1117.82 0z"/>
   <path class="fil1" d="M7482.16 6988.19c123.78,0 232.95,-34.28 324.69,-102.83 92.76,-69.5 168.27,-165.66 226.58,-289.45 58.31,-123.78 95.92,-268.5 113,-436.08 17.08,-167.58 8.96,-312.3 -24.23,-435.13 -33.19,-122.82 -89.18,-218.04 -167.89,-286.59 -77.85,-67.6 -180.13,-100.93 -303.91,-100.93 -122.82,0 -232.87,33.33 -329.16,99.97 -95.34,66.65 -173.61,161.87 -233.72,284.7 -60.11,122.82 -98.77,268.5 -116.03,437.98 -17.08,167.58 -7.08,312.3 28.87,436.08 35,123.79 93.74,219.95 175.22,289.45 81.56,68.55 183.75,102.83 306.58,102.83zm-1729.04 1877.62l432.62 -4245.59 959.76 0 -51.12 501.78 27.61 0c54.65,-97.12 124.69,-186.62 209.3,-269.47 84.62,-82.83 186.64,-149.48 306.12,-200.89 119.42,-50.47 258.18,-76.17 416.24,-76.17 225.66,0 426.25,59.04 602.75,177.09 176.49,118.06 310.89,294.21 401.17,529.4 90.3,235.17 117.45,529.39 81.65,880.73 -34.84,341.82 -119.56,631.26 -254.07,867.39 -135.46,236.14 -303.19,415.14 -504.12,537.01 -200.95,121.88 -421.39,182.82 -659.43,182.82 -150.44,0 -280.16,-25.71 -389.38,-75.23 -109.11,-50.45 -198.59,-116.15 -267.46,-197.08 -68.88,-80.94 -119.74,-170.43 -152.48,-269.47l-19.05 0 -168.93 1657.68 -971.18 0z"/>
  </g>
  <path class="fil4" d="M3403.9 7736.22c-24.24,-3.08 -48.2,-6.51 -71.83,-10.34 23.65,3.82 47.59,7.26 71.83,10.34zm-139.19 -22.36c-12.34,-2.41 -24.57,-4.93 -36.73,-7.55 12.16,2.64 24.4,5.14 36.73,7.55zm-110.43 -24.98c-11.52,-2.98 -22.94,-6.05 -34.3,-9.22 11.35,3.17 22.78,6.24 34.3,9.22zm-36.95 -9.97c-11.44,-3.21 -22.8,-6.51 -34.07,-9.92 11.29,3.41 22.63,6.71 34.07,9.92zm-57.28 -17.13c-6.99,-2.23 -13.95,-4.48 -20.88,-6.79 6.93,2.31 13.89,4.56 20.88,6.79zm-34.91 -11.52c-15,-5.12 -29.85,-10.43 -44.54,-15.94 14.69,5.49 29.54,10.82 44.54,15.94zm-66.73 -24.43c-46.76,-18.29 -91.98,-38.49 -135.67,-60.64 -249.03,-125.68 -434.65,-303.73 -557.99,-532.25 -122.4,-228.51 -168.25,-497.97 -136.81,-806.45l273.41 -2683.14 981.66 0 -265.17 2602.19c-14.75,144.73 5.38,274.23 58.57,387.53 53.11,114.25 134.54,202.8 243.05,268.5 108.62,64.75 239.57,97.12 391.91,97.12 154.25,0 292.76,-32.37 414.56,-97.12 121.91,-65.7 220.43,-154.25 296.63,-266.6 55.65,-83.1 95.12,-176.1 117.94,-278.26 -147.72,770.91 -825.55,1353.48 -1639.53,1353.48 -28.93,0 -57.68,-0.75 -86.24,-2.2 14.41,6.13 28.96,12.08 43.68,17.84z"/>
  <path class="fil3" d="M5481.8 3557.33l324.59 530.68 324.58 530.67 -335.32 0 -163.84 1607.81c-31.43,308.48 -132.21,577.94 -301.17,806.45 -168.97,228.52 -391.82,406.57 -666.46,532.25 -275.71,126.64 -588.8,190.43 -940.14,190.43 -309.23,0 -578.78,-49.44 -809.31,-147.63 28.56,1.45 57.31,2.2 86.24,2.2 813.98,0 1491.81,-582.57 1639.53,-1353.48 8.04,-35.93 14,-73 17.9,-111.17l3.47 -34.05 0.03 -0.28 152.09 -1492.53 -407.09 0 537.45 -530.67 537.45 -530.68z"/>
  <g id="_1957850546704">
   <path class="fil4" d="M13073.65 21172.92c-24.24,-3.08 -48.2,-6.51 -71.83,-10.34 23.65,3.82 47.59,7.26 71.83,10.34zm-139.19 -22.36c-12.34,-2.41 -24.57,-4.93 -36.73,-7.55 12.16,2.64 24.4,5.14 36.73,7.55zm-110.43 -24.98c-11.52,-2.98 -22.94,-6.05 -34.3,-9.22 11.35,3.17 22.78,6.24 34.3,9.22zm-36.95 -9.97c-11.44,-3.21 -22.8,-6.51 -34.07,-9.92 11.29,3.41 22.63,6.71 34.07,9.92zm-57.28 -17.13c-6.99,-2.23 -13.95,-4.48 -20.88,-6.79 6.93,2.31 13.89,4.56 20.88,6.79zm-34.91 -11.52c-15,-5.12 -29.85,-10.43 -44.54,-15.94 14.69,5.49 29.54,10.82 44.54,15.94zm-66.73 -24.43c-46.76,-18.29 -91.98,-38.49 -135.67,-60.64 -249.03,-125.68 -434.65,-303.73 -557.99,-532.25 -122.4,-228.51 -168.25,-497.97 -136.81,-806.45l273.41 -2683.14 981.66 0 -265.17 2602.19c-14.75,144.73 5.38,274.23 58.57,387.53 53.11,114.25 134.54,202.8 243.05,268.5 108.62,64.75 239.57,97.12 391.91,97.12 154.25,0 292.76,-32.37 414.56,-97.12 121.91,-65.7 220.43,-154.25 296.63,-266.6 55.65,-83.1 95.12,-176.1 117.94,-278.26 -147.72,770.91 -825.55,1353.48 -1639.53,1353.48 -28.93,0 -57.68,-0.75 -86.24,-2.2 14.41,6.13 28.96,12.08 43.68,17.84z"/>
   <path class="fil3" d="M15151.55 16994.03l324.59 530.68 324.58 530.67 -335.32 0 -163.84 1607.81c-31.43,308.48 -132.21,577.94 -301.17,806.45 -168.97,228.52 -391.82,406.57 -666.46,532.25 -275.71,126.64 -588.8,190.43 -940.14,190.43 -309.23,0 -578.78,-49.44 -809.31,-147.63 28.56,1.45 57.31,2.2 86.24,2.2 813.98,0 1491.81,-582.57 1639.53,-1353.48 8.04,-35.93 14,-73 17.9,-111.17l3.47 -34.05 0.03 -0.28 152.09 -1492.53 -407.09 0 537.45 -530.67 537.45 -530.68z"/>
  </g>
  <g id="_1957850599408">
   <path class="fil4" d="M5262.99 18611.29c-23.41,-2.98 -46.55,-6.29 -69.38,-9.99 22.84,3.68 45.97,7.01 69.38,9.99zm-134.44 -21.6c-11.91,-2.33 -23.73,-4.76 -35.47,-7.29 11.74,2.54 23.57,4.96 35.47,7.29zm-106.65 -24.13c-11.13,-2.88 -22.16,-5.84 -33.13,-8.9 10.96,3.06 22,6.02 33.13,8.9zm-35.69 -9.62c-11.06,-3.11 -22.02,-6.3 -32.91,-9.59 10.9,3.29 21.85,6.48 32.91,9.59zm-55.33 -16.55c-6.75,-2.15 -13.47,-4.33 -20.17,-6.56 6.7,2.23 13.42,4.41 20.17,6.56zm-33.71 -11.13c-14.49,-4.95 -28.83,-10.08 -43.03,-15.4 14.2,5.31 28.54,10.45 43.03,15.4zm-64.46 -23.6c-45.16,-17.66 -88.84,-37.17 -131.04,-58.57 -240.52,-121.39 -419.8,-293.36 -538.93,-514.07 -118.22,-220.71 -162.5,-480.96 -132.14,-778.92l264.07 -2591.51 948.14 0 -256.11 2513.33c-14.24,139.79 5.19,264.86 56.57,374.3 51.3,110.35 129.95,195.87 234.75,259.33 104.91,62.54 231.39,93.8 378.53,93.8 148.98,0 282.76,-31.26 400.4,-93.8 117.75,-63.46 212.9,-148.98 286.5,-257.49 53.76,-80.27 91.88,-170.1 113.92,-268.76 -142.69,744.58 -797.36,1307.26 -1583.55,1307.26 -27.94,0 -55.71,-0.73 -83.29,-2.13 13.91,5.92 27.96,11.67 42.18,17.23z"/>
   <path class="fil3" d="M7269.94 14575.09l313.5 512.56 313.5 512.55 -323.87 0 -158.24 1552.9c-30.36,297.96 -127.7,558.21 -290.89,778.92 -163.2,220.71 -378.44,392.68 -643.71,514.07 -266.29,122.32 -568.68,183.94 -908.03,183.94 -298.67,0 -559.01,-47.76 -781.67,-142.6 27.58,1.4 55.35,2.13 83.29,2.13 786.19,0 1440.86,-562.68 1583.55,-1307.26 7.76,-34.71 13.52,-70.51 17.28,-107.38l3.36 -32.89 0.02 -0.26 146.9 -1441.57 -393.18 0 519.09 -512.55 519.1 -512.56z"/>
  </g>
 </g>
</svg>
